<svg xmlns="http://www.w3.org/2000/svg" width="349" height="302" viewBox="0 0 349 302">
  <g id="Polygon_2" data-name="Polygon 2" fill="none">
    <path d="M138.134,62.937c16.169-27.983,56.562-27.983,72.732,0L312.59,238.987c16.179,28-4.028,63.013-36.366,63.013H72.775c-32.338,0-52.545-35.013-36.366-63.013Z" stroke="none"/>
    <path d="M 174.5 42.9493408203125 C 167.4833526611328 42.9493408203125 160.5780792236328 44.7203369140625 154.5307312011719 48.07089233398438 C 151.3946533203125 49.80844116210938 148.5034942626953 51.96136474609375 145.9375762939453 54.46978759765625 C 143.2595825195313 57.08782958984375 140.9254608154297 60.1048583984375 139.0000762939453 63.43701171875 L 37.27545166015625 239.4876403808594 C 35.34896850585938 242.8217468261719 33.90020751953125 246.3526763916016 32.96942138671875 249.9823608398438 C 32.07760620117188 253.4599914550781 31.65679931640625 257.0418395996094 31.71865844726563 260.6283264160156 C 31.83792114257813 267.5441284179688 33.7557373046875 274.4135131835938 37.26480102539063 280.4938354492188 C 40.77383422851563 286.5741271972656 45.76223754882813 291.6714477539063 51.69061279296875 295.2346801757813 C 54.76507568359375 297.0825500488281 58.07693481445313 298.5101928710938 61.5341796875 299.4778747558594 C 65.14260864257813 300.4878540039063 68.9246826171875 301 72.775390625 301 L 276.224609375 301 C 280.0753173828125 301 283.8573913574219 300.4878540039063 287.4658203125 299.4778747558594 C 290.9230651855469 298.5101928710938 294.2349243164063 297.0825500488281 297.3093872070313 295.2346801757813 C 303.2377624511719 291.6714172363281 308.2261657714844 286.5740966796875 311.7351989746094 280.4937744140625 C 315.2442626953125 274.4134826660156 317.1620788574219 267.5441284179688 317.2813110351563 260.6283264160156 C 317.3431396484375 257.0418090820313 316.92236328125 253.4599914550781 316.0305480957031 249.9823608398438 C 315.0997619628906 246.3526763916016 313.6510009765625 242.8217468261719 311.7244873046875 239.4876403808594 L 209.9999237060547 63.43701171875 C 208.0745391845703 60.1048583984375 205.7404174804688 57.08782958984375 203.0624237060547 54.46978759765625 C 200.4965057373047 51.96136474609375 197.6053466796875 49.80844116210938 194.4692687988281 48.07089233398438 C 188.4219207763672 44.7203369140625 181.5166473388672 42.9493408203125 174.5 42.9493408203125 M 174.5000152587891 41.9493408203125 C 188.6406402587891 41.9493408203125 202.78125 48.94512939453125 210.8657684326172 62.93670654296875 L 312.59033203125 238.9873352050781 C 328.7691650390625 266.9873352050781 308.5626831054688 302 276.224609375 302 L 72.775390625 302 C 40.437255859375 302 20.2308349609375 266.9873352050781 36.40960693359375 238.9873352050781 L 138.1342315673828 62.93670654296875 C 146.2187652587891 48.94512939453125 160.3593902587891 41.9493408203125 174.5000152587891 41.9493408203125 Z" stroke="none" fill="#707070"/>
  </g>
</svg>
